<svg xmlns="http://www.w3.org/2000/svg" width="432.218" height="104.908" viewBox="0 0 432.21823 104.90752"><path d="M24.157 84.061h55.987q2.069 0 3.137-1.01 1.067-1.01 1.735-3.606h2.135v25.463h-2.135q-.668-2.597-1.735-3.607-1.068-1.01-3.137-1.01H0v-2.308q2.402-.721 3.337-1.876.934-1.154.934-3.39V9.405q0-2.236-.934-3.39Q2.402 4.86 0 4.139V1.831h28.427V4.14q-2.402.65-3.336 1.876-.934 1.154-.934 3.39v74.656zM145.474.1c15.882 0 28.472 4.64 37.77 13.921 9.832 9.714 14.748 22.265 14.748 37.653 0 9.425-2.358 18.226-7.074 26.4-9.209 15.966-24.312 23.948-45.31 23.948-15.749 0-28.272-4.64-37.57-13.921-4.983-4.953-8.764-10.892-11.344-17.817-2.27-6.107-3.404-12.527-3.404-19.259 0-9.858 2.336-18.874 7.007-27.05C109.239 8.348 124.298.39 145.474.1zm.781 68.805c-8.675 0-16.618-49.353-22.402-43.775-6.85 6.588-10.276 15.22-10.276 25.895 0 10.676 3.425 19.307 10.276 25.895 5.784 5.579 13.057 8.368 21.821 8.368 8.764 0 16.016-2.79 21.755-8.368 3.425-3.318 6.05-7.381 7.874-12.19a37.57 37.57 0 0 0 2.402-13.272c0-11.156-3.425-19.932-10.276-26.328-5.828-5.482-12.41 43.872-21.174 43.775zm147.229-4.031h-22.488q-2.07 0-3.137 1.01-1 1.01-1.668 3.607h-2.136V46.553h2.136q.667 2.669 1.668 3.679 1.068.937 3.137.937h43.241v2.309q-2.402.72-3.403 1.875-.934 1.154-.934 3.39V78.94q0 2.236.934 3.39t3.403 1.876v1.803q-25.958 16.013-50.315 16.013-22.088 0-36.035-11.324-17.55-14.283-17.55-39.673 0-23.66 15.615-37.653Q240.766.1 265.323.1q7.808 0 14.681 1.587 6.94 1.515 15.749 5.193 4.538 1.948 6.473 1.948 1.401 0 3.27-1.659l1.868 1.082-10.677 23.587-1.935-1.082q-.067-2.38-.6-3.39-.535-1.082-2.403-2.597-4.07-3.318-11.945-5.626-7.874-2.38-14.881-2.38-14.28 0-23.69 8.655-10.61 9.81-10.61 25.896 0 15.58 10.343 25.174 9.476 8.8 24.958 8.8 7.54 0 14.881-1.876 7.34-1.875 12.679-5.121V64.874zM379.7.1c15.883 0 28.473 4.64 37.77 13.921 9.832 9.714 14.748 22.265 14.748 37.653 0 9.425-2.358 18.226-7.073 26.4-9.21 15.966-24.313 23.948-45.31 23.948-15.75 0-28.273-4.64-37.57-13.921-4.983-4.953-8.765-10.892-11.345-17.817-2.269-6.107-3.403-12.527-3.403-19.259 0-9.858 2.336-18.874 7.007-27.05C343.466 8.348 358.524.39 379.7.1zm.067 16.662c-8.675 0-15.904 2.79-21.687 8.368-6.851 6.588-10.277 15.22-10.277 25.895 0 10.676 3.426 19.307 10.277 25.895 5.783 5.579 13.771-40.204 22.535-40.204s15.301 45.783 21.04 40.204c3.426-3.318 6.05-7.381 7.875-12.19a37.57 37.57 0 0 0 2.402-13.272c0-11.156-3.426-19.932-10.277-26.328-5.828-5.482-13.123-8.271-21.888-8.368z" style="-inkscape-font-specification:'Copperplate Gothic Bold, '" font-weight="400" font-size="142.088" font-family="Copperplate Gothic Bold" letter-spacing="0" word-spacing="0" fill="#fff"/></svg>